<svg
  viewBox="0 0 46 47"
  fill="currentColor"
  xmlns="http://www.w3.org/2000/svg">
  <path
    fill="currentColor"
    d="M34.915 21.035a6.4 6.4 0 0 0-1.432 2.339 6.5 6.5 0 0 0-.33 2.744l-.03-.032a7.75 7.75 0 0 1-.42 3.223 7.6 7.6 0 0 1-1.697 2.742 7.3 7.3 0 0 1-2.66 1.749c-1 .376-2.068.524-3.129.432l.03.03a6.05 6.05 0 0 0-3.649.816 6.3 6.3 0 0 0-2.532 2.828 6.56 6.56 0 0 0-.494 3.813 6.45 6.45 0 0 0 1.724 3.414 6.13 6.13 0 0 0 3.314 1.772 6.03 6.03 0 0 0 3.7-.512 6.27 6.27 0 0 0 2.743-2.611 6.54 6.54 0 0 0 .788-3.761l.032.03a7.75 7.75 0 0 1 .419-3.222 7.6 7.6 0 0 1 1.697-2.742 7.3 7.3 0 0 1 2.661-1.749c1-.377 2.067-.524 3.128-.432l-.032-.03a6 6 0 0 0 3.033-.51 6.2 6.2 0 0 0 2.42-1.95 6.5 6.5 0 0 0 1.21-2.911 6.55 6.55 0 0 0-.299-3.152 6.4 6.4 0 0 0-1.735-2.613 6.1 6.1 0 0 0-2.742-1.43 6 6 0 0 0-3.072.107 6.15 6.15 0 0 0-2.641 1.618z" />
  <path
    fill="currentColor"
    d="m22.553 30.295-.032-.032c.906.094 1.82-.02 2.678-.335a6.1 6.1 0 0 0 2.28-1.486 6.4 6.4 0 0 0 1.444-2.35 6.5 6.5 0 0 0 .327-2.762l.032.031a7.8 7.8 0 0 1 .421-3.24 7.6 7.6 0 0 1 1.706-2.756 7.3 7.3 0 0 1 2.673-1.76 7.15 7.15 0 0 1 3.143-.434l-.032-.03a6.07 6.07 0 0 0 3.668-.817 6.35 6.35 0 0 0 2.546-2.842 6.6 6.6 0 0 0 .499-3.835c-.22-1.3-.825-2.5-1.73-3.433a6.16 6.16 0 0 0-3.33-1.784 6.05 6.05 0 0 0-3.72.514 6.3 6.3 0 0 0-2.756 2.625 6.6 6.6 0 0 0-.791 3.782l-.03-.033a7.8 7.8 0 0 1-.421 3.24 7.6 7.6 0 0 1-1.706 2.758 7.3 7.3 0 0 1-2.673 1.758 7.15 7.15 0 0 1-3.143.434l.03.033a6 6 0 0 0-2.678.335 6.1 6.1 0 0 0-2.28 1.487 6.4 6.4 0 0 0-1.444 2.35 6.5 6.5 0 0 0-.327 2.761l-.03-.031a7.8 7.8 0 0 1-.422 3.24 7.6 7.6 0 0 1-1.706 2.756 7.3 7.3 0 0 1-2.673 1.759 7.15 7.15 0 0 1-3.143.435l.03.031a6.07 6.07 0 0 0-3.667.816 6.35 6.35 0 0 0-2.546 2.843 6.6 6.6 0 0 0-.499 3.834c.22 1.301.825 2.5 1.73 3.434a6.16 6.16 0 0 0 3.33 1.783 6.06 6.06 0 0 0 3.72-.514 6.3 6.3 0 0 0 2.755-2.625 6.6 6.6 0 0 0 .792-3.782l.032.031a7.8 7.8 0 0 1 .422-3.24 7.6 7.6 0 0 1 1.705-2.756 7.3 7.3 0 0 1 2.673-1.759 7.15 7.15 0 0 1 3.143-.434" />
  <path
    fill="currentColor"
    d="M11.236 26.77a6.4 6.4 0 0 0 1.432-2.34 6.5 6.5 0 0 0 .328-2.744l.032.031a7.75 7.75 0 0 1 .42-3.224 7.6 7.6 0 0 1 1.699-2.742A7.3 7.3 0 0 1 17.809 14a7.1 7.1 0 0 1 3.13-.43l-.032-.031a6.05 6.05 0 0 0 3.65-.813 6.3 6.3 0 0 0 2.533-2.826 6.56 6.56 0 0 0 .495-3.814 6.45 6.45 0 0 0-1.721-3.413A6.14 6.14 0 0 0 22.55.9a6.03 6.03 0 0 0-3.7.51 6.27 6.27 0 0 0-2.744 2.61 6.54 6.54 0 0 0-.789 3.761l-.03-.031a7.75 7.75 0 0 1-.419 3.223 7.6 7.6 0 0 1-1.698 2.742 7.3 7.3 0 0 1-2.661 1.75c-1 .376-2.068.524-3.129.431l.03.031a6 6 0 0 0-3.033.51 6.2 6.2 0 0 0-2.42 1.952 6.5 6.5 0 0 0-1.21 2.91 6.55 6.55 0 0 0 .3 3.152 6.4 6.4 0 0 0 1.736 2.614 6.1 6.1 0 0 0 2.743 1.43 6 6 0 0 0 3.071-.108 6.15 6.15 0 0 0 2.643-1.618zM56.41 26.142q0-2.154.821-3.82.846-1.665 2.263-2.563 1.441-.897 3.207-.897 1.542 0 2.685.641 1.169.641 1.865 1.615v-2.025h3.505v14.2h-3.505v-2.076q-.672 1-1.865 1.666-1.168.64-2.71.641a5.8 5.8 0 0 1-3.182-.923q-1.418-.922-2.263-2.589-.82-1.692-.82-3.87m10.84.051q0-1.307-.496-2.23-.498-.948-1.343-1.435a3.44 3.44 0 0 0-1.815-.513q-.97 0-1.79.487t-1.343 1.436q-.497.923-.497 2.204t.497 2.256q.523.948 1.343 1.46.845.513 1.79.513.97 0 1.815-.487a3.7 3.7 0 0 0 1.343-1.435q.497-.949.497-2.256M77.637 14.325v18.968h-3.481V14.325zM98.18 18.888q2.536 0 4.078 1.615 1.566 1.59 1.566 4.46v8.33h-3.48V25.45q0-1.666-.82-2.538-.822-.897-2.238-.897-1.418 0-2.263.897-.82.871-.82 2.538v7.843h-3.48V25.45q0-1.666-.821-2.538-.82-.897-2.238-.897-1.442 0-2.287.897-.82.871-.82 2.538v7.843h-3.481v-14.2h3.48v1.717a4.7 4.7 0 0 1 1.716-1.41 5.3 5.3 0 0 1 2.337-.512q1.615 0 2.884.718a4.8 4.8 0 0 1 1.964 1.999 5.1 5.1 0 0 1 1.94-1.974 5.5 5.5 0 0 1 2.784-.743M106.232 26.142q0-2.154.821-3.82.845-1.665 2.262-2.563 1.443-.897 3.208-.897 1.54 0 2.685.641 1.168.641 1.864 1.615v-2.025h3.506v14.2h-3.506v-2.076q-.671 1-1.864 1.666-1.169.64-2.71.641a5.8 5.8 0 0 1-3.183-.923q-1.417-.922-2.262-2.589-.82-1.692-.821-3.87m10.84.051q0-1.307-.497-2.23-.497-.948-1.343-1.435a3.44 3.44 0 0 0-1.814-.513q-.97 0-1.791.487-.82.487-1.342 1.436-.498.923-.497 2.204 0 1.281.497 2.256.522.948 1.342 1.46a3.4 3.4 0 0 0 1.791.513q.97 0 1.814-.487a3.7 3.7 0 0 0 1.343-1.435q.498-.949.497-2.256M123.082 26.142q0-2.154.821-3.82.845-1.665 2.287-2.563 1.442-.897 3.207-.897 1.343 0 2.561.615 1.219.59 1.939 1.59v-6.742h3.531v18.968h-3.531v-2.102q-.647 1.052-1.815 1.692t-2.71.641a5.8 5.8 0 0 1-3.182-.923q-1.442-.922-2.287-2.589-.82-1.692-.821-3.87m10.84.051q0-1.307-.497-2.23-.498-.948-1.343-1.435a3.44 3.44 0 0 0-1.815-.513q-.97 0-1.79.487t-1.342 1.436q-.497.923-.497 2.204t.497 2.256q.522.948 1.342 1.46a3.4 3.4 0 0 0 1.79.513q.97 0 1.815-.487a3.7 3.7 0 0 0 1.343-1.435q.497-.949.497-2.256M139.932 26.142q0-2.154.821-3.82.844-1.665 2.262-2.563 1.443-.897 3.207-.897 1.542 0 2.686.641 1.168.641 1.864 1.615v-2.025h3.506v14.2h-3.506v-2.076q-.671 1-1.864 1.666-1.169.64-2.71.641a5.8 5.8 0 0 1-3.183-.923q-1.418-.922-2.262-2.589-.82-1.692-.821-3.87m10.84.051q0-1.307-.497-2.23-.497-.948-1.343-1.435a3.44 3.44 0 0 0-1.815-.513q-.97 0-1.79.487t-1.342 1.436q-.498.923-.497 2.204 0 1.281.497 2.256.522.948 1.342 1.46a3.4 3.4 0 0 0 1.79.513q.97 0 1.815-.487a3.7 3.7 0 0 0 1.343-1.435q.497-.949.497-2.256" />
</svg>
