<svg
  width="24"
  height="24"
  viewBox="0 0 24 24"
  fill="none"
  xmlns="http://www.w3.org/2000/svg">
  <g clip-path="url(#clip0_17_27)">
    <path
      d="M17.6985 10.8463C17.392 11.1585 17.1584 11.532 17.0136 11.9411C16.8675 12.3532 16.8137 12.7913 16.8558 13.2255L16.8414 13.2106C16.8842 13.7217 16.8157 14.2359 16.6406 14.7192C16.4669 15.1989 16.1902 15.6366 15.829 16.0027C15.4716 16.3639 15.0372 16.6434 14.5568 16.8214C14.0785 16.9974 13.5677 17.0666 13.0603 17.0236L13.0747 17.0376C12.4663 16.9814 11.8554 17.1151 11.3295 17.4196C10.7964 17.7285 10.3735 18.1907 10.1185 18.7433C9.8594 19.3018 9.77711 19.9235 9.88226 20.5281C9.98571 21.1301 10.2732 21.6873 10.7068 22.1262C11.1333 22.5582 11.6877 22.8484 12.2917 22.9556C12.8926 23.0611 13.5122 22.9771 14.0613 22.716C14.6169 22.4506 15.075 22.0238 15.3732 21.4938C15.6761 20.9571 15.8074 20.3438 15.75 19.7333L15.7653 19.7474C15.7225 19.2364 15.7908 18.7224 15.9657 18.2392C16.1394 17.7595 16.4161 17.3218 16.7773 16.9557C17.1348 16.5945 17.5694 16.3149 18.05 16.137C18.5283 15.9606 19.0386 15.8917 19.546 15.9348L19.5307 15.9208C20.0272 15.9659 20.5271 15.8836 20.9813 15.682C21.44 15.4789 21.8383 15.1648 22.1387 14.7693C22.4429 14.3684 22.6416 13.9005 22.7173 13.4067C22.7937 12.9108 22.7446 12.4042 22.5743 11.9313C22.4057 11.4625 22.1205 11.0422 21.7446 10.7082C21.3734 10.3785 20.9218 10.148 20.4332 10.0388C19.9473 9.93036 19.4409 9.94762 18.964 10.0889C18.4838 10.2318 18.049 10.4925 17.7009 10.8463H17.6985Z"
      fill="currentColor" />
    <path
      d="M11.7862 15.1806L11.7709 15.1656C12.2042 15.2096 12.6414 15.1563 13.0517 15.0088C13.4641 14.8603 13.8368 14.6225 14.1421 14.3132C14.4513 14.0001 14.687 13.6247 14.8327 13.2132C14.9796 12.7984 15.0329 12.3573 14.9891 11.9204L15.0044 11.9349C14.9614 11.4211 15.03 10.9043 15.2058 10.4183C15.3798 9.93587 15.6581 9.49585 16.0217 9.12826C16.3803 8.76448 16.8169 8.48311 17.3001 8.30443C17.7793 8.12739 18.293 8.05796 18.8033 8.10128L18.788 8.08724C19.3993 8.14459 20.0135 8.0107 20.5422 7.70482C21.0778 7.39404 21.5029 6.92964 21.7599 6.37452C22.0208 5.81289 22.1039 5.18768 21.9985 4.57941C21.8933 3.9709 21.604 3.4092 21.1711 2.97248C20.7427 2.53774 20.1857 2.24564 19.5785 2.13741C18.9744 2.03088 18.3513 2.11514 17.7994 2.37801C17.2411 2.64479 16.7807 3.07395 16.4813 3.60673C16.1776 4.14668 16.0458 4.76321 16.103 5.37703L16.0887 5.36158C16.1317 5.87536 16.0631 6.39223 15.8873 6.87818C15.7134 7.36094 15.4351 7.80129 15.0714 8.16916C14.7127 8.53259 14.2761 8.81364 13.793 8.99205C13.3138 9.16909 12.8001 9.23852 12.2898 9.1952L12.3042 9.21064C11.8706 9.16704 11.4326 9.22067 11.0234 9.36745C10.611 9.51612 10.2382 9.75406 9.93296 10.0635C9.62381 10.3767 9.38813 10.7521 9.24235 11.1635C9.09559 11.5782 9.04224 12.0191 9.08596 12.4559L9.07161 12.4414C9.11449 12.9552 9.0457 13.472 8.86979 13.958C8.69576 14.4404 8.41746 14.8804 8.05387 15.248C7.6952 15.6116 7.25858 15.8928 6.77548 16.0714C6.29633 16.2486 5.78262 16.3182 5.27231 16.275L5.28666 16.2895C4.6755 16.2321 4.06149 16.3658 3.53287 16.6715C2.99717 16.9823 2.57208 17.4469 2.31522 18.0022C2.05441 18.5637 1.97129 19.1887 2.07657 19.7969C2.18179 20.4058 2.47113 20.9671 2.90396 21.4043C3.33243 21.8388 3.8895 22.1308 4.49657 22.2389C5.10068 22.3451 5.72365 22.2608 6.2757 21.9983C6.83381 21.7314 7.29401 21.3022 7.59331 20.7695C7.89719 20.2296 8.0291 19.6131 7.97209 18.9992L7.98739 19.0138C7.94452 18.4999 8.0133 17.9831 8.18922 17.4972C8.36311 17.0148 8.64124 16.5747 9.00466 16.2071C9.36333 15.8435 9.79995 15.5623 10.283 15.3838C10.7622 15.2067 11.2759 15.1373 11.7862 15.1806Z"
      fill="currentColor" />
    <path
      d="M6.37374 13.5306C6.68024 13.2183 6.9139 12.8446 7.05861 12.4353C7.20436 12.0231 7.25786 11.5851 7.21548 11.1509L7.23078 11.1654C7.18797 10.6541 7.25643 10.1398 7.43165 9.65628C7.60555 9.17647 7.88265 8.73879 8.24422 8.37279C8.60176 8.01117 9.03649 7.7313 9.51735 7.55317C9.99456 7.3769 10.5062 7.3081 11.0143 7.3519L10.999 7.33739C11.6073 7.39414 12.2184 7.26092 12.7447 6.95683C13.2778 6.64825 13.7008 6.18635 13.9561 5.63403C14.2155 5.07545 14.2979 4.45363 14.1928 3.84875C14.0897 3.24706 13.8027 2.69007 13.3697 2.25118C12.943 1.81919 12.3888 1.52895 11.7848 1.42126C11.184 1.31553 10.5644 1.39912 10.0152 1.65998C9.45957 1.9251 9.0012 2.3518 8.70287 2.88169C8.3998 3.41828 8.26834 4.03159 8.32552 4.64215L8.31118 4.62764C8.35408 5.13873 8.28578 5.65292 8.11078 6.13628C7.93703 6.61605 7.6601 7.05373 7.2987 7.41977C6.94125 7.78117 6.50669 8.06087 6.02605 8.23892C5.54778 8.41492 5.037 8.4842 4.52957 8.44066L4.54391 8.45517C4.04741 8.41005 3.54747 8.49233 3.09335 8.6939C2.63452 8.89731 2.2362 9.21176 1.93596 9.6076C1.63181 10.0083 1.43307 10.4761 1.35726 10.9697C1.28109 11.4656 1.33036 11.9722 1.50074 12.4451C1.66946 12.9141 1.95479 13.3346 2.331 13.6687C2.70226 13.9984 3.15408 14.229 3.64287 14.3381C4.12863 14.4463 4.63481 14.4289 5.11161 14.2875C5.5921 14.1448 6.02727 13.8841 6.37565 13.5302L6.37374 13.5306ZM27.9787 13.2367C27.9787 12.5645 28.1096 11.9685 28.3714 11.4486C28.6411 10.929 29.0019 10.5291 29.4537 10.2489C29.9131 9.96896 30.4244 9.829 30.9874 9.829C31.4791 9.829 31.9071 9.92902 32.2716 10.129C32.6443 10.3291 32.9416 10.5811 33.1635 10.885V9.93713H34.8398V16.5839H33.1635V15.6122C32.9493 15.9243 32.6519 16.1842 32.2716 16.392C31.8992 16.5917 31.4671 16.6918 30.9755 16.6921C30.4361 16.6959 29.9072 16.5458 29.4537 16.26C29.0015 15.9723 28.6408 15.5684 28.3714 15.0482C28.1099 14.5202 27.9787 13.9163 27.9787 13.2367ZM33.1635 13.2605C33.1635 12.8527 33.0844 12.5047 32.9263 12.2167C32.7675 11.9209 32.5534 11.697 32.284 11.545C32.0232 11.3874 31.7225 11.3042 31.416 11.3049C31.1067 11.3049 30.8213 11.3809 30.5599 11.5328C30.2984 11.6848 30.0843 11.9089 29.9176 12.205C29.7591 12.493 29.6799 12.8369 29.6799 13.2367C29.6799 13.6364 29.7591 13.9884 29.9176 14.2927C30.0843 14.5885 30.2984 14.8163 30.5599 14.9761C30.8293 15.1362 31.1147 15.2162 31.416 15.2162C31.7252 15.2162 32.0146 15.1402 32.284 14.9882C32.5561 14.8251 32.778 14.593 32.9263 14.3165C33.0848 14.0204 33.1635 13.6684 33.1635 13.2605ZM38.1307 7.7053V16.5839H36.4659V7.7053H38.1307ZM47.9557 9.84118C48.7642 9.84118 49.4144 10.0932 49.906 10.5971C50.4053 11.0933 50.655 11.7892 50.655 12.6848V16.5839H48.9906V12.9127C48.9906 12.3929 48.8599 11.9969 48.5984 11.7247C48.3364 11.4448 47.9796 11.3049 47.5281 11.3049C47.076 11.3049 46.7152 11.4448 46.4458 11.7247C46.1843 11.9966 46.0536 12.3926 46.0536 12.9127V16.5839H44.3893V12.9127C44.3893 12.3929 44.2584 11.9969 43.9966 11.7247C43.7352 11.4448 43.3784 11.3049 42.9263 11.3049C42.4665 11.3049 42.1019 11.4448 41.8325 11.7247C41.571 11.9966 41.4403 12.3926 41.4403 12.9127V16.5839H39.7755V9.93713H41.4398V10.7408C41.6556 10.4598 41.937 10.2335 42.2605 10.0808C42.6096 9.91862 42.9919 9.83664 43.3782 9.84118C43.8931 9.84118 44.3529 9.9532 44.7575 10.1773C45.1588 10.3908 45.4858 10.7166 45.6968 11.113C45.9132 10.7271 46.2343 10.4074 46.6247 10.189C47.029 9.95929 47.4881 9.83924 47.9557 9.84118ZM51.8066 13.2367C51.8066 12.5645 51.9375 11.9685 52.1993 11.4486C52.4687 10.929 52.8293 10.5291 53.2811 10.2489C53.7412 9.96896 54.2526 9.829 54.8154 9.829C55.3064 9.829 55.7344 9.92902 56.0995 10.129C56.4719 10.3291 56.769 10.5811 56.991 10.885V9.93713H58.6677V16.5839H56.991V15.6122C56.777 15.9243 56.4799 16.1842 56.0995 16.392C55.7268 16.5917 55.2947 16.6918 54.8034 16.6921C54.2638 16.696 53.7348 16.5459 53.2811 16.26C52.8293 15.9723 52.4687 15.5684 52.1993 15.0482C51.9378 14.5202 51.8069 13.9163 51.8066 13.2367ZM56.991 13.2605C56.991 12.8527 56.9117 12.5047 56.7533 12.2167C56.5948 11.9209 56.3807 11.697 56.111 11.545C55.8503 11.3875 55.5498 11.3043 55.2434 11.3049C54.9341 11.3049 54.6486 11.3809 54.3868 11.5328C54.1254 11.6848 53.9114 11.9089 53.745 12.205C53.5862 12.493 53.507 12.8369 53.5073 13.2367C53.5073 13.6364 53.5865 13.9884 53.745 14.2927C53.9114 14.5885 54.1254 14.8163 54.3868 14.9761C54.6439 15.1326 54.9406 15.2158 55.2434 15.2162C55.5527 15.2162 55.8419 15.1402 56.111 14.9882C56.383 14.8251 56.6049 14.593 56.7533 14.3165C56.912 14.0204 56.9913 13.6684 56.991 13.2605ZM59.8653 13.2367C59.8653 12.5645 59.9962 11.9685 60.258 11.4486C60.5274 10.929 60.892 10.5291 61.3517 10.2489C61.8115 9.96896 62.3228 9.829 62.8855 9.829C63.3137 9.829 63.722 9.92496 64.1103 10.1169C64.499 10.301 64.8081 10.5491 65.0377 10.8611V7.7053H66.7264V16.5839H65.0377V15.6C64.8314 15.9283 64.5421 16.1923 64.1697 16.392C63.7972 16.5917 63.3652 16.6918 62.8736 16.6921C62.3342 16.6959 61.8053 16.5458 61.3517 16.26C60.892 15.9723 60.5274 15.5684 60.258 15.0482C59.9965 14.5202 59.8656 13.9163 59.8653 13.2367ZM65.0497 13.2605C65.0497 12.8527 64.9704 12.5047 64.812 12.2167C64.6532 11.9209 64.4391 11.697 64.1697 11.545C63.9088 11.3874 63.6082 11.3042 63.3016 11.3049C62.9923 11.3049 62.707 11.3809 62.4455 11.5328C62.1841 11.6848 61.9701 11.9089 61.8037 12.205C61.6452 12.493 61.566 12.8369 61.566 13.2367C61.566 13.6364 61.6452 13.9884 61.8037 14.2927C61.9701 14.5885 62.1841 14.8163 62.4455 14.9761C62.7025 15.1325 62.999 15.2157 63.3016 15.2162C63.6109 15.2162 63.9002 15.1402 64.1697 14.9882C64.4417 14.8251 64.6636 14.593 64.812 14.3165C64.9704 14.0204 65.0497 13.6684 65.0497 13.2605ZM67.924 13.2367C67.924 12.5645 68.0549 11.9685 68.3167 11.4486C68.5858 10.929 68.9464 10.5291 69.3985 10.2489C69.8586 9.96896 70.3698 9.829 70.9323 9.829C71.4239 9.829 71.8521 9.92902 72.2169 10.129C72.5893 10.3291 72.8864 10.5811 73.1084 10.885V9.93713H74.7851V16.5839H73.1084V15.6122C72.8944 15.9243 72.5973 16.1842 72.2169 16.392C71.8441 16.5917 71.4121 16.6918 70.9208 16.6921C70.3812 16.696 69.8522 16.5459 69.3985 16.26C68.9464 15.9723 68.5858 15.5684 68.3167 15.0482C68.0552 14.5202 67.9243 13.9163 67.924 13.2367ZM73.1084 13.2605C73.1084 12.8527 73.0291 12.5047 72.8707 12.2167C72.7122 11.9209 72.4981 11.697 72.2284 11.545C71.9675 11.3874 71.6669 11.3042 71.3603 11.3049C71.051 11.3049 70.7657 11.3809 70.5042 11.5328C70.2428 11.6848 70.0288 11.9089 69.8624 12.205C69.7036 12.493 69.6244 12.8369 69.6247 13.2367C69.6247 13.6364 69.7039 13.9884 69.8624 14.2927C70.0288 14.5885 70.2428 14.8163 70.5042 14.9761C70.7612 15.1325 71.0577 15.2157 71.3603 15.2162C71.6696 15.2162 71.9589 15.1402 72.2284 14.9882C72.5004 14.8251 72.7223 14.593 72.8707 14.3165C73.0291 14.0204 73.1084 13.6684 73.1084 13.2605Z"
      fill="currentColor" />
  </g>
  <defs>
    <clipPath id="clip0_17_27">
      <rect
        width="22"
        height="22"
        fill="white"
        transform="translate(1 1)" />
    </clipPath>
  </defs>
</svg>
