<?xml version="1.0" encoding="UTF-8"?>
<svg
  xmlns="http://www.w3.org/2000/svg"
  xmlns:xlink="http://www.w3.org/1999/xlink"
  width="24px"
  height="23px"
  viewBox="0 0 24 23"
  version="1.1">
  <g id="surface1">
    <path
      style="
        stroke: none;
        fill-rule: evenodd;
        fill: currentColor;
        fill-opacity: 1;
      "
      d="M 18.714844 14 L 23.464844 14 L 23.464844 9 L 18.714844 9 Z M 18.714844 14 " />
    <path
      style="
        stroke: none;
        fill-rule: evenodd;
        fill: currentColor;
        fill-opacity: 1;
      "
      d="M 8.964844 23.5 L 13.964844 23.5 L 13.964844 18.5 L 8.964844 18.5 Z M 8.964844 23.5 " />
    <path
      style="
        stroke: none;
        fill-rule: evenodd;
        fill: currentColor;
        fill-opacity: 1;
      "
      d="M -0.0351562 14 L 4.714844 14 L 4.714844 9 L -0.0351562 9 Z M -0.0351562 14 " />
    <path
      style="
        stroke: none;
        fill-rule: evenodd;
        fill: currentColor;
        fill-opacity: 1;
      "
      d="M 8.964844 4.75 L 13.964844 4.75 L 13.964844 0 L 8.964844 0 Z M 8.964844 4.75 " />
    <path
      style="
        stroke: none;
        fill-rule: evenodd;
        fill: currentColor;
        fill-opacity: 1;
      "
      d="M 23.464844 14 L 23.464844 23.5 L 13.964844 23.5 L 13.964844 18.75 L 18.714844 18.75 L 18.714844 14 Z M 23.464844 14 " />
    <path
      style="
        stroke: none;
        fill-rule: evenodd;
        fill: currentColor;
        fill-opacity: 1;
      "
      d="M -0.0351562 0 L -0.0351562 9.5 L 4.714844 9.5 L 4.714844 4.75 L 8.964844 4.75 L 8.964844 0 Z M -0.0351562 0 " />
    <path
      style="
        stroke: none;
        fill-rule: evenodd;
        fill: currentColor;
        fill-opacity: 1;
      "
      d="M 13.964844 0 L 13.964844 4.75 L 18.714844 4.75 L 18.714844 9.5 L 23.464844 9.5 L 23.464844 0 Z M 13.964844 0 " />
    <path
      style="
        stroke: none;
        fill-rule: evenodd;
        fill: currentColor;
        fill-opacity: 1;
      "
      d="M 8.964844 14 L 13.964844 14 L 13.964844 9 L 8.964844 9 Z M 8.964844 14 " />
    <path
      style="
        stroke: none;
        fill-rule: evenodd;
        fill: currentColor;
        fill-opacity: 1;
      "
      d="M 8.964844 18.75 L 13.964844 18.75 L 13.964844 14 L 8.964844 14 Z M 8.964844 18.75 " />
    <path
      style="
        stroke: none;
        fill-rule: evenodd;
        fill: currentColor;
        fill-opacity: 1;
      "
      d="M 8.964844 18.75 L 8.964844 23.5 L -0.0351562 23.5 L -0.0351562 14 L 4.714844 14 L 4.714844 18.75 Z M 8.964844 18.75 " />
  </g>
</svg>
