<svg width="24" height="24" viewBox="0 0 24 24" fill="none" xmlns="http://www.w3.org/2000/svg">
    <path
        d="M17.9008 19.0246H1.85181C0.830849 19.0246 0.201005 18.2185 0.447998 17.2279L2.83729 7.64494C3.08428 6.65431 4.11612 5.84814 5.13708 5.84814H21.186C22.207 5.84814 22.8368 6.65431 22.5899 7.64494L20.2006 17.2279C19.9536 18.2185 18.9217 19.0246 17.9008 19.0246ZM2.15047 17.8268H18.1994C18.5395 17.8268 18.8836 17.5585 18.966 17.2279L21.308 7.8348L11.3594 14.6878C11.2193 14.7842 11.0648 14.8321 10.9216 14.8321C10.7784 14.8321 10.6478 14.7842 10.5557 14.6878L4.02448 7.8348L1.68253 17.2279C1.6001 17.5585 1.81036 17.8268 2.15047 17.8268ZM20.5565 7.04601H5.16928L11.2676 13.4444L20.5565 7.04601Z"
        fill="currentColor" />
</svg>