<svg
  xmlns="http://www.w3.org/2000/svg"
  xmlns:xlink="http://www.w3.org/1999/xlink"
  width="24px"
  height="24px"
  viewBox="0 0 24 24"
  version="1.1">
  <defs>
    <filter
      id="alpha"
      filterUnits="objectBoundingBox"
      x="0%"
      y="0%"
      width="100%"
      height="100%">
      <feColorMatrix
        type="matrix"
        in="SourceGraphic"
        values="0 0 0 0 1 0 0 0 0 1 0 0 0 0 1 0 0 0 1 0" />
    </filter>
    <mask id="mask0">
      <g filter="url(#alpha)">
        <rect
          x="0"
          y="0"
          width="24"
          height="24"
          style="fill: rgb(0%, 0%, 0%); fill-opacity: 0.964706; stroke: none" />
      </g>
    </mask>
    <clipPath id="clip1">
      <rect
        x="0"
        y="0"
        width="24"
        height="24" />
    </clipPath>
    <g
      id="surface5"
      clip-path="url(#clip1)">
      <path
        style="
          stroke: none;
          fill-rule: evenodd;
          fill: rgb(88.627452%, 18.82353%, 51.372552%);
          fill-opacity: 1;
        "
        d="M 12.570312 4.738281 C 12.90625 4.738281 13.242188 4.738281 13.578125 4.738281 C 13.578125 5.832031 13.578125 6.925781 13.578125 8.019531 C 13.328125 8.019531 13.074219 8.019531 12.820312 8.019531 C 12.0625 8.019531 11.304688 8.019531 10.546875 8.019531 C 11.1875 7.933594 11.839844 7.851562 12.503906 7.769531 C 12.460938 6.753906 12.484375 5.742188 12.570312 4.738281 Z M 12.570312 4.738281 " />
    </g>
    <mask id="mask1">
      <g filter="url(#alpha)">
        <rect
          x="0"
          y="0"
          width="24"
          height="24"
          style="fill: rgb(0%, 0%, 0%); fill-opacity: 0.956863; stroke: none" />
      </g>
    </mask>
    <clipPath id="clip2">
      <rect
        x="0"
        y="0"
        width="24"
        height="24" />
    </clipPath>
    <g
      id="surface8"
      clip-path="url(#clip2)">
      <path
        style="
          stroke: none;
          fill-rule: evenodd;
          fill: rgb(89.803922%, 23.137255%, 49.803922%);
          fill-opacity: 1;
        "
        d="M 13.578125 4.738281 C 13.789062 4.738281 14 4.738281 14.210938 4.738281 C 14.210938 5.832031 14.210938 6.925781 14.210938 8.019531 C 14 8.019531 13.789062 8.019531 13.578125 8.019531 C 13.578125 6.925781 13.578125 5.832031 13.578125 4.738281 Z M 13.578125 4.738281 " />
    </g>
    <mask id="mask2">
      <g filter="url(#alpha)">
        <rect
          x="0"
          y="0"
          width="24"
          height="24"
          style="fill: rgb(0%, 0%, 0%); fill-opacity: 0.952941; stroke: none" />
      </g>
    </mask>
    <clipPath id="clip3">
      <rect
        x="0"
        y="0"
        width="24"
        height="24" />
    </clipPath>
    <g
      id="surface11"
      clip-path="url(#clip3)">
      <path
        style="
          stroke: none;
          fill-rule: evenodd;
          fill: rgb(90.588236%, 27.058825%, 47.450981%);
          fill-opacity: 1;
        "
        d="M 14.210938 4.738281 C 14.589844 4.738281 14.96875 4.738281 15.347656 4.738281 C 15.347656 5.832031 15.347656 6.925781 15.347656 8.019531 C 14.96875 8.019531 14.589844 8.019531 14.210938 8.019531 C 14.210938 6.925781 14.210938 5.832031 14.210938 4.738281 Z M 14.210938 4.738281 " />
    </g>
    <mask id="mask3">
      <g filter="url(#alpha)">
        <rect
          x="0"
          y="0"
          width="24"
          height="24"
          style="fill: rgb(0%, 0%, 0%); fill-opacity: 0.956863; stroke: none" />
      </g>
    </mask>
    <clipPath id="clip4">
      <rect
        x="0"
        y="0"
        width="24"
        height="24" />
    </clipPath>
    <g
      id="surface14"
      clip-path="url(#clip4)">
      <path
        style="
          stroke: none;
          fill-rule: evenodd;
          fill: rgb(91.37255%, 30.588236%, 45.09804%);
          fill-opacity: 1;
        "
        d="M 15.347656 4.738281 C 15.601562 4.738281 15.851562 4.738281 16.105469 4.738281 C 16.105469 5.832031 16.105469 6.925781 16.105469 8.019531 C 15.851562 8.019531 15.601562 8.019531 15.347656 8.019531 C 15.347656 6.925781 15.347656 5.832031 15.347656 4.738281 Z M 15.347656 4.738281 " />
    </g>
    <mask id="mask4">
      <g filter="url(#alpha)">
        <rect
          x="0"
          y="0"
          width="24"
          height="24"
          style="fill: rgb(0%, 0%, 0%); fill-opacity: 0.956863; stroke: none" />
      </g>
    </mask>
    <clipPath id="clip5">
      <rect
        x="0"
        y="0"
        width="24"
        height="24" />
    </clipPath>
    <g
      id="surface17"
      clip-path="url(#clip5)">
      <path
        style="
          stroke: none;
          fill-rule: evenodd;
          fill: rgb(91.764706%, 32.941177%, 42.745098%);
          fill-opacity: 1;
        "
        d="M 16.105469 4.738281 C 16.316406 4.738281 16.527344 4.738281 16.738281 4.738281 C 16.738281 5.832031 16.738281 6.925781 16.738281 8.019531 C 16.527344 8.019531 16.316406 8.019531 16.105469 8.019531 C 16.105469 6.925781 16.105469 5.832031 16.105469 4.738281 Z M 16.105469 4.738281 " />
    </g>
    <mask id="mask5">
      <g filter="url(#alpha)">
        <rect
          x="0"
          y="0"
          width="24"
          height="24"
          style="fill: rgb(0%, 0%, 0%); fill-opacity: 0.956863; stroke: none" />
      </g>
    </mask>
    <clipPath id="clip6">
      <rect
        x="0"
        y="0"
        width="24"
        height="24" />
    </clipPath>
    <g
      id="surface20"
      clip-path="url(#clip6)">
      <path
        style="
          stroke: none;
          fill-rule: evenodd;
          fill: rgb(92.156863%, 35.294119%, 40.000001%);
          fill-opacity: 1;
        "
        d="M 16.738281 4.738281 C 16.949219 4.738281 17.15625 4.738281 17.367188 4.738281 C 17.367188 5.832031 17.367188 6.925781 17.367188 8.019531 C 17.15625 8.019531 16.949219 8.019531 16.738281 8.019531 C 16.738281 6.925781 16.738281 5.832031 16.738281 4.738281 Z M 16.738281 4.738281 " />
    </g>
    <mask id="mask6">
      <g filter="url(#alpha)">
        <rect
          x="0"
          y="0"
          width="24"
          height="24"
          style="fill: rgb(0%, 0%, 0%); fill-opacity: 0.92549; stroke: none" />
      </g>
    </mask>
    <clipPath id="clip7">
      <rect
        x="0"
        y="0"
        width="24"
        height="24" />
    </clipPath>
    <g
      id="surface23"
      clip-path="url(#clip7)">
      <path
        style="
          stroke: none;
          fill-rule: evenodd;
          fill: rgb(93.725491%, 38.82353%, 35.294119%);
          fill-opacity: 1;
        "
        d="M 17.367188 4.738281 C 17.890625 4.691406 18.355469 4.816406 18.757812 5.117188 C 18.632812 5.976562 18.589844 6.859375 18.632812 7.769531 C 18.578125 7.859375 18.496094 7.921875 18.378906 7.957031 C 18.042969 8.019531 17.707031 8.042969 17.367188 8.019531 C 17.367188 6.925781 17.367188 5.832031 17.367188 4.738281 Z M 17.367188 4.738281 " />
    </g>
    <mask id="mask7">
      <g filter="url(#alpha)">
        <rect
          x="0"
          y="0"
          width="24"
          height="24"
          style="fill: rgb(0%, 0%, 0%); fill-opacity: 0.929412; stroke: none" />
      </g>
    </mask>
    <clipPath id="clip8">
      <rect
        x="0"
        y="0"
        width="24"
        height="24" />
    </clipPath>
    <g
      id="surface26"
      clip-path="url(#clip8)">
      <path
        style="
          stroke: none;
          fill-rule: evenodd;
          fill: rgb(88.627452%, 13.333334%, 54.11765%);
          fill-opacity: 1;
        "
        d="M 12.570312 4.738281 C 12.484375 5.742188 12.460938 6.753906 12.503906 7.769531 C 11.839844 7.851562 11.1875 7.933594 10.546875 8.019531 C 10.234375 8.039062 9.984375 8.167969 9.789062 8.398438 C 9.707031 8.441406 9.621094 8.484375 9.535156 8.527344 C 9.496094 8.085938 9.558594 7.664062 9.726562 7.261719 C 10.378906 6.527344 11.03125 5.789062 11.683594 5.050781 C 11.96875 4.910156 12.261719 4.804688 12.570312 4.738281 Z M 12.570312 4.738281 " />
    </g>
    <mask id="mask8">
      <g filter="url(#alpha)">
        <rect
          x="0"
          y="0"
          width="24"
          height="24"
          style="fill: rgb(0%, 0%, 0%); fill-opacity: 0.611765; stroke: none" />
      </g>
    </mask>
    <clipPath id="clip9">
      <rect
        x="0"
        y="0"
        width="24"
        height="24" />
    </clipPath>
    <g
      id="surface29"
      clip-path="url(#clip9)">
      <path
        style="
          stroke: none;
          fill-rule: evenodd;
          fill: rgb(94.901961%, 42.352942%, 28.627452%);
          fill-opacity: 1;
        "
        d="M 18.757812 5.117188 C 19.480469 5.832031 19.5625 6.632812 19.011719 7.515625 C 18.902344 7.632812 18.777344 7.71875 18.632812 7.769531 C 18.589844 6.859375 18.632812 5.976562 18.757812 5.117188 Z M 18.757812 5.117188 " />
    </g>
    <mask id="mask9">
      <g filter="url(#alpha)">
        <rect
          x="0"
          y="0"
          width="24"
          height="24"
          style="fill: rgb(0%, 0%, 0%); fill-opacity: 0.956863; stroke: none" />
      </g>
    </mask>
    <clipPath id="clip10">
      <rect
        x="0"
        y="0"
        width="24"
        height="24" />
    </clipPath>
    <g
      id="surface32"
      clip-path="url(#clip10)">
      <path
        style="
          stroke: none;
          fill-rule: evenodd;
          fill: rgb(70.588237%, 32.549021%, 60.784316%);
          fill-opacity: 1;
        "
        d="M 8.148438 6.757812 C 7.078125 6.730469 5.984375 6.773438 4.863281 6.882812 C 4.859375 5.351562 5.617188 4.699219 7.136719 4.925781 C 7.910156 5.285156 8.246094 5.898438 8.148438 6.757812 Z M 8.148438 6.757812 " />
    </g>
    <mask id="mask10">
      <g filter="url(#alpha)">
        <rect
          x="0"
          y="0"
          width="24"
          height="24"
          style="fill: rgb(0%, 0%, 0%); fill-opacity: 0.968627; stroke: none" />
      </g>
    </mask>
    <clipPath id="clip11">
      <rect
        x="0"
        y="0"
        width="24"
        height="24" />
    </clipPath>
    <g
      id="surface35"
      clip-path="url(#clip11)">
      <path
        style="
          stroke: none;
          fill-rule: evenodd;
          fill: rgb(63.529414%, 31.764707%, 18.039216%);
          fill-opacity: 1;
        "
        d="M 10.546875 8.019531 C 11.304688 8.019531 12.0625 8.019531 12.820312 8.019531 C 12.820312 8.105469 12.820312 8.191406 12.820312 8.273438 C 11.804688 8.25 10.796875 8.289062 9.789062 8.398438 C 9.984375 8.167969 10.234375 8.039062 10.546875 8.019531 Z M 10.546875 8.019531 " />
    </g>
    <mask id="mask11">
      <g filter="url(#alpha)">
        <rect
          x="0"
          y="0"
          width="24"
          height="24"
          style="fill: rgb(0%, 0%, 0%); fill-opacity: 0.956863; stroke: none" />
      </g>
    </mask>
    <clipPath id="clip12">
      <rect
        x="0"
        y="0"
        width="24"
        height="24" />
    </clipPath>
    <g
      id="surface38"
      clip-path="url(#clip12)">
      <path
        style="
          stroke: none;
          fill-rule: evenodd;
          fill: rgb(66.666669%, 37.254903%, 63.137257%);
          fill-opacity: 1;
        "
        d="M 8.148438 6.757812 C 8.148438 7.429688 8.148438 8.105469 8.148438 8.777344 C 7.050781 8.777344 5.957031 8.777344 4.863281 8.777344 C 4.863281 8.148438 4.863281 7.515625 4.863281 6.882812 C 5.984375 6.773438 7.078125 6.730469 8.148438 6.757812 Z M 8.148438 6.757812 " />
    </g>
    <mask id="mask12">
      <g filter="url(#alpha)">
        <rect
          x="0"
          y="0"
          width="24"
          height="24"
          style="fill: rgb(0%, 0%, 0%); fill-opacity: 0.956863; stroke: none" />
      </g>
    </mask>
    <clipPath id="clip13">
      <rect
        x="0"
        y="0"
        width="24"
        height="24" />
    </clipPath>
    <g
      id="surface41"
      clip-path="url(#clip13)">
      <path
        style="
          stroke: none;
          fill-rule: evenodd;
          fill: rgb(63.137257%, 40.392157%, 65.490198%);
          fill-opacity: 1;
        "
        d="M 4.863281 8.777344 C 5.957031 8.777344 7.050781 8.777344 8.148438 8.777344 C 8.148438 9.285156 8.148438 9.789062 8.148438 10.292969 C 7.050781 10.292969 5.957031 10.292969 4.863281 10.292969 C 4.863281 9.789062 4.863281 9.285156 4.863281 8.777344 Z M 4.863281 8.777344 " />
    </g>
    <mask id="mask13">
      <g filter="url(#alpha)">
        <rect
          x="0"
          y="0"
          width="24"
          height="24"
          style="fill: rgb(0%, 0%, 0%); fill-opacity: 0.913725; stroke: none" />
      </g>
    </mask>
    <clipPath id="clip14">
      <rect
        x="0"
        y="0"
        width="24"
        height="24" />
    </clipPath>
    <g
      id="surface44"
      clip-path="url(#clip14)">
      <path
        style="
          stroke: none;
          fill-rule: evenodd;
          fill: rgb(67.058825%, 82.352942%, 38.431373%);
          fill-opacity: 1;
        "
        d="M 21.535156 10.925781 C 19.492188 10.902344 17.46875 10.859375 15.472656 10.800781 C 16.414062 9.667969 17.632812 9.121094 19.136719 9.15625 C 20.140625 9.023438 20.921875 9.359375 21.472656 10.167969 C 21.535156 10.417969 21.558594 10.671875 21.535156 10.925781 Z M 21.535156 10.925781 " />
    </g>
    <mask id="mask14">
      <g filter="url(#alpha)">
        <rect
          x="0"
          y="0"
          width="24"
          height="24"
          style="fill: rgb(0%, 0%, 0%); fill-opacity: 0.956863; stroke: none" />
      </g>
    </mask>
    <clipPath id="clip15">
      <rect
        x="0"
        y="0"
        width="24"
        height="24" />
    </clipPath>
    <g
      id="surface47"
      clip-path="url(#clip15)">
      <path
        style="
          stroke: none;
          fill-rule: evenodd;
          fill: rgb(88.627452%, 43.921569%, 18.039216%);
          fill-opacity: 1;
        "
        d="M 12.820312 8.273438 C 12.820312 8.820312 12.820312 9.367188 12.820312 9.914062 C 11.726562 9.914062 10.632812 9.914062 9.535156 9.914062 C 9.535156 9.453125 9.535156 8.988281 9.535156 8.527344 C 9.621094 8.484375 9.707031 8.441406 9.789062 8.398438 C 10.796875 8.289062 11.804688 8.25 12.820312 8.273438 Z M 12.820312 8.273438 " />
    </g>
    <mask id="mask15">
      <g filter="url(#alpha)">
        <rect
          x="0"
          y="0"
          width="24"
          height="24"
          style="fill: rgb(0%, 0%, 0%); fill-opacity: 0.952941; stroke: none" />
      </g>
    </mask>
    <clipPath id="clip16">
      <rect
        x="0"
        y="0"
        width="24"
        height="24" />
    </clipPath>
    <g
      id="surface50"
      clip-path="url(#clip16)">
      <path
        style="
          stroke: none;
          fill-rule: evenodd;
          fill: rgb(90.588236%, 49.411765%, 18.431373%);
          fill-opacity: 1;
        "
        d="M 9.535156 9.914062 C 10.632812 9.914062 11.726562 9.914062 12.820312 9.914062 C 12.820312 10.378906 12.820312 10.84375 12.820312 11.304688 C 11.726562 11.304688 10.632812 11.304688 9.535156 11.304688 C 9.535156 10.84375 9.535156 10.378906 9.535156 9.914062 Z M 9.535156 9.914062 " />
    </g>
    <mask id="mask16">
      <g filter="url(#alpha)">
        <rect
          x="0"
          y="0"
          width="24"
          height="24"
          style="fill: rgb(0%, 0%, 0%); fill-opacity: 0.968627; stroke: none" />
      </g>
    </mask>
    <clipPath id="clip17">
      <rect
        x="0"
        y="0"
        width="24"
        height="24" />
    </clipPath>
    <g
      id="surface53"
      clip-path="url(#clip17)">
      <path
        style="
          stroke: none;
          fill-rule: evenodd;
          fill: rgb(64.705884%, 81.568629%, 39.607844%);
          fill-opacity: 1;
        "
        d="M 15.472656 10.800781 C 17.46875 10.859375 19.492188 10.902344 21.535156 10.925781 C 21.578125 11.269531 21.496094 11.566406 21.285156 11.808594 C 19.113281 11.851562 16.96875 11.808594 14.84375 11.683594 C 14.960938 11.320312 15.171875 11.027344 15.472656 10.800781 Z M 15.472656 10.800781 " />
    </g>
    <mask id="mask17">
      <g filter="url(#alpha)">
        <rect
          x="0"
          y="0"
          width="24"
          height="24"
          style="fill: rgb(0%, 0%, 0%); fill-opacity: 0.960784; stroke: none" />
      </g>
    </mask>
    <clipPath id="clip18">
      <rect
        x="0"
        y="0"
        width="24"
        height="24" />
    </clipPath>
    <g
      id="surface56"
      clip-path="url(#clip18)">
      <path
        style="
          stroke: none;
          fill-rule: evenodd;
          fill: rgb(58.431375%, 43.921569%, 68.235296%);
          fill-opacity: 1;
        "
        d="M 4.863281 10.292969 C 5.957031 10.292969 7.050781 10.292969 8.148438 10.292969 C 8.148438 10.96875 8.148438 11.640625 8.148438 12.316406 C 7.050781 12.316406 5.957031 12.316406 4.863281 12.316406 C 4.863281 11.640625 4.863281 10.96875 4.863281 10.292969 Z M 4.863281 10.292969 " />
    </g>
    <mask id="mask18">
      <g filter="url(#alpha)">
        <rect
          x="0"
          y="0"
          width="24"
          height="24"
          style="fill: rgb(0%, 0%, 0%); fill-opacity: 0.909804; stroke: none" />
      </g>
    </mask>
    <clipPath id="clip19">
      <rect
        x="0"
        y="0"
        width="24"
        height="24" />
    </clipPath>
    <g
      id="surface59"
      clip-path="url(#clip19)">
      <path
        style="
          stroke: none;
          fill-rule: evenodd;
          fill: rgb(61.960787%, 80.784315%, 40.392157%);
          fill-opacity: 1;
        "
        d="M 14.84375 11.683594 C 16.96875 11.808594 19.113281 11.851562 21.285156 11.808594 C 21.136719 12.0625 20.925781 12.253906 20.652344 12.378906 C 20.019531 12.421875 19.390625 12.464844 18.757812 12.503906 C 18.234375 12.714844 17.855469 13.074219 17.621094 13.578125 C 16.546875 13.644531 15.453125 13.644531 14.335938 13.578125 C 14.292969 12.875 14.460938 12.246094 14.84375 11.683594 Z M 14.84375 11.683594 " />
    </g>
    <mask id="mask19">
      <g filter="url(#alpha)">
        <rect
          x="0"
          y="0"
          width="24"
          height="24"
          style="fill: rgb(0%, 0%, 0%); fill-opacity: 0.956863; stroke: none" />
      </g>
    </mask>
    <clipPath id="clip20">
      <rect
        x="0"
        y="0"
        width="24"
        height="24" />
    </clipPath>
    <g
      id="surface62"
      clip-path="url(#clip20)">
      <path
        style="
          stroke: none;
          fill-rule: evenodd;
          fill: rgb(91.764706%, 54.901963%, 18.82353%);
          fill-opacity: 1;
        "
        d="M 9.535156 11.304688 C 10.632812 11.304688 11.726562 11.304688 12.820312 11.304688 C 12.820312 11.894531 12.820312 12.484375 12.820312 13.074219 C 11.726562 13.074219 10.632812 13.074219 9.535156 13.074219 C 9.535156 12.484375 9.535156 11.894531 9.535156 11.304688 Z M 9.535156 11.304688 " />
    </g>
    <mask id="mask20">
      <g filter="url(#alpha)">
        <rect
          x="0"
          y="0"
          width="24"
          height="24"
          style="fill: rgb(0%, 0%, 0%); fill-opacity: 0.941176; stroke: none" />
      </g>
    </mask>
    <clipPath id="clip21">
      <rect
        x="0"
        y="0"
        width="24"
        height="24" />
    </clipPath>
    <g
      id="surface65"
      clip-path="url(#clip21)">
      <path
        style="
          stroke: none;
          fill-rule: evenodd;
          fill: rgb(59.607846%, 80.000001%, 92.941177%);
          fill-opacity: 1;
        "
        d="M 4.738281 13.453125 C 3.390625 13.453125 2.042969 13.453125 0.695312 13.453125 C 0.628906 12.316406 1.15625 11.726562 2.273438 11.683594 C 2.710938 11.65625 3.109375 11.761719 3.472656 12 C 3.910156 12.476562 4.332031 12.960938 4.738281 13.453125 Z M 4.738281 13.453125 " />
    </g>
    <mask id="mask21">
      <g filter="url(#alpha)">
        <rect
          x="0"
          y="0"
          width="24"
          height="24"
          style="fill: rgb(0%, 0%, 0%); fill-opacity: 0.976471; stroke: none" />
      </g>
    </mask>
    <clipPath id="clip22">
      <rect
        x="0"
        y="0"
        width="24"
        height="24" />
    </clipPath>
    <g
      id="surface68"
      clip-path="url(#clip22)">
      <path
        style="
          stroke: none;
          fill-rule: evenodd;
          fill: rgb(53.725493%, 46.27451%, 69.803923%);
          fill-opacity: 1;
        "
        d="M 4.863281 12.316406 C 5.957031 12.316406 7.050781 12.316406 8.148438 12.316406 C 8.148438 12.738281 8.148438 13.15625 8.148438 13.578125 C 7.46875 13.582031 6.792969 13.582031 6.125 13.578125 C 6.144531 13.710938 6.125 13.839844 6.0625 13.957031 C 5.789062 13.699219 5.472656 13.53125 5.117188 13.453125 C 5.03125 13.453125 4.949219 13.453125 4.863281 13.453125 C 4.863281 13.074219 4.863281 12.695312 4.863281 12.316406 Z M 4.863281 12.316406 " />
    </g>
    <mask id="mask22">
      <g filter="url(#alpha)">
        <rect
          x="0"
          y="0"
          width="24"
          height="24"
          style="fill: rgb(0%, 0%, 0%); fill-opacity: 0.976471; stroke: none" />
      </g>
    </mask>
    <clipPath id="clip23">
      <rect
        x="0"
        y="0"
        width="24"
        height="24" />
    </clipPath>
    <g
      id="surface71"
      clip-path="url(#clip23)">
      <path
        style="
          stroke: none;
          fill-rule: evenodd;
          fill: rgb(52.156866%, 73.725492%, 89.411765%);
          fill-opacity: 1;
        "
        d="M 0.695312 13.453125 C 2.042969 13.453125 3.390625 13.453125 4.738281 13.453125 C 4.777344 13.453125 4.820312 13.453125 4.863281 13.453125 C 5.054688 13.941406 5.351562 14.363281 5.746094 14.714844 C 4.378906 14.839844 2.992188 14.882812 1.578125 14.84375 C 1.023438 14.539062 0.730469 14.078125 0.695312 13.453125 Z M 0.695312 13.453125 " />
    </g>
    <mask id="mask23">
      <g filter="url(#alpha)">
        <rect
          x="0"
          y="0"
          width="24"
          height="24"
          style="fill: rgb(0%, 0%, 0%); fill-opacity: 0.956863; stroke: none" />
      </g>
    </mask>
    <clipPath id="clip24">
      <rect
        x="0"
        y="0"
        width="24"
        height="24" />
    </clipPath>
    <g
      id="surface74"
      clip-path="url(#clip24)">
      <path
        style="
          stroke: none;
          fill-rule: evenodd;
          fill: rgb(94.117647%, 65.490198%, 19.607843%);
          fill-opacity: 1;
        "
        d="M 9.535156 14.335938 C 10.632812 14.335938 11.726562 14.335938 12.820312 14.335938 C 12.820312 14.757812 12.820312 15.179688 12.820312 15.601562 C 11.726562 15.601562 10.632812 15.601562 9.535156 15.601562 C 9.535156 15.179688 9.535156 14.757812 9.535156 14.335938 Z M 9.535156 14.335938 " />
    </g>
    <mask id="mask24">
      <g filter="url(#alpha)">
        <rect
          x="0"
          y="0"
          width="24"
          height="24"
          style="fill: rgb(0%, 0%, 0%); fill-opacity: 0.952941; stroke: none" />
      </g>
    </mask>
    <clipPath id="clip25">
      <rect
        x="0"
        y="0"
        width="24"
        height="24" />
    </clipPath>
    <g
      id="surface77"
      clip-path="url(#clip25)">
      <path
        style="
          stroke: none;
          fill-rule: evenodd;
          fill: rgb(55.686277%, 78.823531%, 42.352942%);
          fill-opacity: 1;
        "
        d="M 14.335938 13.578125 C 15.453125 13.644531 16.546875 13.644531 17.621094 13.578125 C 17.589844 14.066406 17.671875 14.53125 17.875 14.96875 C 16.71875 15.09375 15.539062 15.136719 14.335938 15.09375 C 14.335938 14.589844 14.335938 14.085938 14.335938 13.578125 Z M 14.335938 13.578125 " />
    </g>
    <mask id="mask25">
      <g filter="url(#alpha)">
        <rect
          x="0"
          y="0"
          width="24"
          height="24"
          style="fill: rgb(0%, 0%, 0%); fill-opacity: 0.945098; stroke: none" />
      </g>
    </mask>
    <clipPath id="clip26">
      <rect
        x="0"
        y="0"
        width="24"
        height="24" />
    </clipPath>
    <g
      id="surface80"
      clip-path="url(#clip26)">
      <path
        style="
          stroke: none;
          fill-rule: evenodd;
          fill: rgb(48.235294%, 48.235294%, 70.588237%);
          fill-opacity: 1;
        "
        d="M 5.117188 13.453125 C 5.472656 13.53125 5.789062 13.699219 6.0625 13.957031 C 6.125 13.839844 6.144531 13.710938 6.125 13.578125 C 6.792969 13.582031 7.46875 13.582031 8.148438 13.578125 C 8.148438 14.210938 8.148438 14.84375 8.148438 15.472656 C 7.996094 15.671875 7.871094 15.882812 7.769531 16.105469 C 7.628906 15.902344 7.421875 15.796875 7.136719 15.789062 C 6.433594 15.023438 5.761719 14.246094 5.117188 13.453125 Z M 5.117188 13.453125 " />
    </g>
    <mask id="mask26">
      <g filter="url(#alpha)">
        <rect
          x="0"
          y="0"
          width="24"
          height="24"
          style="fill: rgb(0%, 0%, 0%); fill-opacity: 0.929412; stroke: none" />
      </g>
    </mask>
    <clipPath id="clip27">
      <rect
        x="0"
        y="0"
        width="24"
        height="24" />
    </clipPath>
    <g
      id="surface83"
      clip-path="url(#clip27)">
      <path
        style="
          stroke: none;
          fill-rule: evenodd;
          fill: rgb(3.137255%, 65.882355%, 79.215688%);
          fill-opacity: 1;
        "
        d="M 23.429688 15.726562 C 22.378906 15.726562 21.328125 15.726562 20.273438 15.726562 C 20.296875 15.601562 20.253906 15.515625 20.148438 15.472656 C 20.304688 14.558594 20.851562 14.011719 21.789062 13.832031 C 22.882812 13.996094 23.429688 14.628906 23.429688 15.726562 Z M 23.429688 15.726562 " />
    </g>
    <mask id="mask27">
      <g filter="url(#alpha)">
        <rect
          x="0"
          y="0"
          width="24"
          height="24"
          style="fill: rgb(0%, 0%, 0%); fill-opacity: 0.996078; stroke: none" />
      </g>
    </mask>
    <clipPath id="clip28">
      <rect
        x="0"
        y="0"
        width="24"
        height="24" />
    </clipPath>
    <g
      id="surface86"
      clip-path="url(#clip28)">
      <path
        style="
          stroke: none;
          fill-rule: evenodd;
          fill: rgb(23.921569%, 38.82353%, 30.588236%);
          fill-opacity: 1;
        "
        d="M 20.019531 15.472656 C 20.0625 15.472656 20.105469 15.472656 20.148438 15.472656 C 20.253906 15.515625 20.296875 15.601562 20.273438 15.726562 C 20.273438 16.191406 20.273438 16.652344 20.273438 17.117188 C 20.292969 17.457031 20.273438 17.792969 20.210938 18.125 C 20.175781 18.242188 20.113281 18.324219 20.019531 18.378906 C 20.019531 17.410156 20.019531 16.441406 20.019531 15.472656 Z M 20.019531 15.472656 " />
    </g>
    <mask id="mask28">
      <g filter="url(#alpha)">
        <rect
          x="0"
          y="0"
          width="24"
          height="24"
          style="fill: rgb(0%, 0%, 0%); fill-opacity: 0.972549; stroke: none" />
      </g>
    </mask>
    <clipPath id="clip29">
      <rect
        x="0"
        y="0"
        width="24"
        height="24" />
    </clipPath>
    <g
      id="surface89"
      clip-path="url(#clip29)">
      <path
        style="
          stroke: none;
          fill-rule: evenodd;
          fill: rgb(50.588238%, 77.64706%, 43.921569%);
          fill-opacity: 1;
        "
        d="M 17.875 14.96875 C 18.394531 15.332031 18.984375 15.5 19.640625 15.472656 C 19.675781 15.761719 19.632812 16.035156 19.515625 16.292969 C 18 16.359375 16.484375 16.378906 14.96875 16.359375 C 14.65625 16 14.445312 15.578125 14.335938 15.09375 C 15.539062 15.136719 16.71875 15.09375 17.875 14.96875 Z M 17.875 14.96875 " />
    </g>
    <mask id="mask29">
      <g filter="url(#alpha)">
        <rect
          x="0"
          y="0"
          width="24"
          height="24"
          style="fill: rgb(0%, 0%, 0%); fill-opacity: 0.992157; stroke: none" />
      </g>
    </mask>
    <clipPath id="clip30">
      <rect
        x="0"
        y="0"
        width="24"
        height="24" />
    </clipPath>
    <g
      id="surface92"
      clip-path="url(#clip30)">
      <path
        style="
          stroke: none;
          fill-rule: evenodd;
          fill: rgb(44.705883%, 67.450982%, 86.274511%);
          fill-opacity: 1;
        "
        d="M 5.746094 14.714844 C 6.214844 15.058594 6.59375 15.480469 6.882812 15.980469 C 5.515625 16.105469 4.128906 16.148438 2.714844 16.105469 C 2.242188 15.761719 1.863281 15.339844 1.578125 14.84375 C 2.992188 14.882812 4.378906 14.839844 5.746094 14.714844 Z M 5.746094 14.714844 " />
    </g>
    <mask id="mask30">
      <g filter="url(#alpha)">
        <rect
          x="0"
          y="0"
          width="24"
          height="24"
          style="fill: rgb(0%, 0%, 0%); fill-opacity: 0.956863; stroke: none" />
      </g>
    </mask>
    <clipPath id="clip31">
      <rect
        x="0"
        y="0"
        width="24"
        height="24" />
    </clipPath>
    <g
      id="surface95"
      clip-path="url(#clip31)">
      <path
        style="
          stroke: none;
          fill-rule: evenodd;
          fill: rgb(96.078432%, 71.372551%, 20%);
          fill-opacity: 1;
        "
        d="M 9.535156 15.601562 C 10.632812 15.601562 11.726562 15.601562 12.820312 15.601562 C 12.820312 16.0625 12.820312 16.527344 12.820312 16.988281 C 11.726562 16.988281 10.632812 16.988281 9.535156 16.988281 C 9.535156 16.527344 9.535156 16.0625 9.535156 15.601562 Z M 9.535156 15.601562 " />
    </g>
    <mask id="mask31">
      <g filter="url(#alpha)">
        <rect
          x="0"
          y="0"
          width="24"
          height="24"
          style="fill: rgb(0%, 0%, 0%); fill-opacity: 0.92549; stroke: none" />
      </g>
    </mask>
    <clipPath id="clip32">
      <rect
        x="0"
        y="0"
        width="24"
        height="24" />
    </clipPath>
    <g
      id="surface98"
      clip-path="url(#clip32)">
      <path
        style="
          stroke: none;
          fill-rule: evenodd;
          fill: rgb(38.039216%, 61.960787%, 83.137256%);
          fill-opacity: 1;
        "
        d="M 8.148438 15.472656 C 8.121094 15.914062 8.015625 16.335938 7.832031 16.738281 C 7.347656 17.339844 6.824219 17.910156 6.253906 18.441406 C 5.8125 18.835938 5.347656 18.859375 4.863281 18.503906 C 4.09375 17.738281 3.378906 16.9375 2.714844 16.105469 C 4.128906 16.148438 5.515625 16.105469 6.882812 15.980469 C 7.054688 16.128906 7.246094 16.253906 7.453125 16.359375 C 7.617188 16.339844 7.722656 16.257812 7.769531 16.105469 C 7.871094 15.882812 7.996094 15.671875 8.148438 15.472656 Z M 8.148438 15.472656 " />
    </g>
    <mask id="mask32">
      <g filter="url(#alpha)">
        <rect
          x="0"
          y="0"
          width="24"
          height="24"
          style="fill: rgb(0%, 0%, 0%); fill-opacity: 0.964706; stroke: none" />
      </g>
    </mask>
    <clipPath id="clip33">
      <rect
        x="0"
        y="0"
        width="24"
        height="24" />
    </clipPath>
    <g
      id="surface101"
      clip-path="url(#clip33)">
      <path
        style="
          stroke: none;
          fill-rule: evenodd;
          fill: rgb(8.627451%, 60.784316%, 72.941178%);
          fill-opacity: 1;
        "
        d="M 20.273438 15.726562 C 21.328125 15.726562 22.378906 15.726562 23.429688 15.726562 C 23.429688 16.191406 23.429688 16.652344 23.429688 17.117188 C 22.378906 17.117188 21.328125 17.117188 20.273438 17.117188 C 20.273438 16.652344 20.273438 16.191406 20.273438 15.726562 Z M 20.273438 15.726562 " />
    </g>
    <mask id="mask33">
      <g filter="url(#alpha)">
        <rect
          x="0"
          y="0"
          width="24"
          height="24"
          style="fill: rgb(0%, 0%, 0%); fill-opacity: 0.952941; stroke: none" />
      </g>
    </mask>
    <clipPath id="clip34">
      <rect
        x="0"
        y="0"
        width="24"
        height="24" />
    </clipPath>
    <g
      id="surface104"
      clip-path="url(#clip34)">
      <path
        style="
          stroke: none;
          fill-rule: evenodd;
          fill: rgb(43.921569%, 75.294119%, 45.490196%);
          fill-opacity: 1;
        "
        d="M 19.640625 15.472656 C 19.726562 15.472656 19.808594 15.472656 19.894531 15.472656 C 19.957031 16.546875 19.871094 17.597656 19.640625 18.632812 C 19.480469 18.601562 19.351562 18.644531 19.261719 18.757812 C 17.695312 18.824219 16.390625 18.277344 15.347656 17.117188 C 15.152344 16.894531 15.027344 16.644531 14.96875 16.359375 C 16.484375 16.378906 18 16.359375 19.515625 16.292969 C 19.632812 16.035156 19.675781 15.761719 19.640625 15.472656 Z M 19.640625 15.472656 " />
    </g>
    <mask id="mask34">
      <g filter="url(#alpha)">
        <rect
          x="0"
          y="0"
          width="24"
          height="24"
          style="fill: rgb(0%, 0%, 0%); fill-opacity: 0.894118; stroke: none" />
      </g>
    </mask>
    <clipPath id="clip35">
      <rect
        x="0"
        y="0"
        width="24"
        height="24" />
    </clipPath>
    <g
      id="surface107"
      clip-path="url(#clip35)">
      <path
        style="
          stroke: none;
          fill-rule: evenodd;
          fill: rgb(96.862745%, 76.862746%, 20.392157%);
          fill-opacity: 1;
        "
        d="M 9.535156 16.988281 C 10.632812 16.988281 11.726562 16.988281 12.820312 16.988281 C 12.71875 18.410156 11.960938 18.9375 10.546875 18.570312 C 9.878906 18.257812 9.539062 17.730469 9.535156 16.988281 Z M 9.535156 16.988281 " />
    </g>
    <mask id="mask35">
      <g filter="url(#alpha)">
        <rect
          x="0"
          y="0"
          width="24"
          height="24"
          style="fill: rgb(0%, 0%, 0%); fill-opacity: 0.8; stroke: none" />
      </g>
    </mask>
    <clipPath id="clip36">
      <rect
        x="0"
        y="0"
        width="24"
        height="24" />
    </clipPath>
    <g
      id="surface110"
      clip-path="url(#clip36)">
      <path
        style="
          stroke: none;
          fill-rule: evenodd;
          fill: rgb(8.235294%, 53.725493%, 64.705884%);
          fill-opacity: 1;
        "
        d="M 20.273438 17.117188 C 21.328125 17.117188 22.378906 17.117188 23.429688 17.117188 C 23.484375 17.722656 23.316406 18.25 22.925781 18.695312 C 21.707031 18.757812 20.484375 18.777344 19.261719 18.757812 C 19.351562 18.644531 19.480469 18.601562 19.640625 18.632812 C 19.796875 18.578125 19.921875 18.492188 20.019531 18.378906 C 20.113281 18.324219 20.175781 18.242188 20.210938 18.125 C 20.273438 17.792969 20.292969 17.457031 20.273438 17.117188 Z M 20.273438 17.117188 " />
    </g>
  </defs>
  <g id="surface1">
    <use
      xlink:href="#surface26"
      mask="url(#mask7)" />
    <use
      xlink:href="#surface32"
      mask="url(#mask9)" />
    <use
      xlink:href="#surface35"
      mask="url(#mask10)" />
    <use
      xlink:href="#surface38"
      mask="url(#mask11)" />
    <use
      xlink:href="#surface41"
      mask="url(#mask12)" />
    <use
      xlink:href="#surface44"
      mask="url(#mask13)" />
    <use
      xlink:href="#surface47"
      mask="url(#mask14)" />
    <use
      xlink:href="#surface50"
      mask="url(#mask15)" />
    <use
      xlink:href="#surface53"
      mask="url(#mask16)" />
    <use
      xlink:href="#surface56"
      mask="url(#mask17)" />
    <use
      xlink:href="#surface59"
      mask="url(#mask18)" />
    <use
      xlink:href="#surface62"
      mask="url(#mask19)" />
    <use
      xlink:href="#surface65"
      mask="url(#mask20)" />
    <use
      xlink:href="#surface68"
      mask="url(#mask21)" />
    <path
      style="
        stroke: none;
        fill-rule: evenodd;
        fill: rgb(92.941177%, 60.784316%, 19.607843%);
        fill-opacity: 1;
      "
      d="M 9.535156 13.074219 C 10.632812 13.074219 11.726562 13.074219 12.820312 13.074219 C 12.820312 13.496094 12.820312 13.914062 12.820312 14.335938 C 11.726562 14.335938 10.632812 14.335938 9.535156 14.335938 C 9.535156 13.914062 9.535156 13.496094 9.535156 13.074219 Z M 9.535156 13.074219 " />
    <use
      xlink:href="#surface71"
      mask="url(#mask22)" />
    <use
      xlink:href="#surface74"
      mask="url(#mask23)" />
    <use
      xlink:href="#surface77"
      mask="url(#mask24)" />
    <use
      xlink:href="#surface80"
      mask="url(#mask25)" />
    <use
      xlink:href="#surface83"
      mask="url(#mask26)" />
    <path
      style="
        stroke: none;
        fill-rule: evenodd;
        fill: rgb(33.333334%, 35.686275%, 49.411765%);
        fill-opacity: 1;
      "
      d="M 4.863281 13.453125 C 4.949219 13.453125 5.03125 13.453125 5.117188 13.453125 C 5.761719 14.246094 6.433594 15.023438 7.136719 15.789062 C 7.421875 15.796875 7.628906 15.902344 7.769531 16.105469 C 7.722656 16.257812 7.617188 16.339844 7.453125 16.359375 C 7.246094 16.253906 7.054688 16.128906 6.882812 15.980469 C 6.59375 15.480469 6.214844 15.058594 5.746094 14.714844 C 5.351562 14.363281 5.054688 13.941406 4.863281 13.453125 Z M 4.863281 13.453125 " />
    <use
      xlink:href="#surface86"
      mask="url(#mask27)" />
    <use
      xlink:href="#surface89"
      mask="url(#mask28)" />
    <use
      xlink:href="#surface92"
      mask="url(#mask29)" />
    <use
      xlink:href="#surface95"
      mask="url(#mask30)" />
    <use
      xlink:href="#surface98"
      mask="url(#mask31)" />
    <use
      xlink:href="#surface101"
      mask="url(#mask32)" />
    <use
      xlink:href="#surface104"
      mask="url(#mask33)" />
    <path
      style="
        stroke: none;
        fill-rule: evenodd;
        fill: rgb(34.117648%, 54.11765%, 36.470589%);
        fill-opacity: 1;
      "
      d="M 19.894531 15.472656 C 19.9375 15.472656 19.980469 15.472656 20.019531 15.472656 C 20.019531 16.441406 20.019531 17.410156 20.019531 18.378906 C 19.921875 18.492188 19.796875 18.578125 19.640625 18.632812 C 19.871094 17.597656 19.957031 16.546875 19.894531 15.472656 Z M 19.894531 15.472656 " />
    <use
      xlink:href="#surface107"
      mask="url(#mask34)" />
    <use
      xlink:href="#surface110"
      mask="url(#mask35)" />
  </g>
</svg>
