<svg
  width="24"
  height="24"
  viewBox="0 0 24 24"
  fill="none"
  xmlns="http://www.w3.org/2000/svg">
  <path
    fill-rule="evenodd"
    clip-rule="evenodd"
    d="M8.60205 3.59384C8.93017 3.56259 9.24658 3.61337 9.54345 3.75399C10.1333 4.55087 10.7075 5.35946 11.27 6.17587C11.6528 7.14462 12.1255 8.06259 12.6802 8.92196C12.9263 9.40243 12.8911 9.83212 12.5747 10.2149C12.3677 10.2891 12.1567 10.2891 11.9497 10.2149C11.3013 9.54696 10.7935 8.77352 10.4341 7.89852C9.6997 6.96102 8.96923 6.02743 8.23876 5.10165C7.9497 4.47665 8.0747 3.97665 8.60205 3.59384Z"
    fill="currentColor" />
  <mask
    id="mask0_16_98"
    style="mask-type: luminance"
    maskUnits="userSpaceOnUse"
    x="0"
    y="3"
    width="24"
    height="21">
    <path
      d="M23.5 3H0.5V24H23.5V3Z"
      fill="currentColor"
      fill-opacity="0.866667" />
  </mask>
  <g mask="url(#mask0_16_98)">
    <mask
      id="mask1_16_98"
      style="mask-type: luminance"
      maskUnits="userSpaceOnUse"
      x="0"
      y="3"
      width="24"
      height="21">
      <path
        d="M23.5 3H0.5V24H23.5V3Z"
        fill="white" />
    </mask>
    <g mask="url(#mask1_16_98)">
      <path
        fill-rule="evenodd"
        clip-rule="evenodd"
        d="M19.5781 9.7305C19.5977 9.15628 19.5781 8.58206 19.5273 8.00784C19.4648 7.69534 19.293 7.51565 19.0039 7.46878C18.7227 7.6094 18.4258 7.71487 18.1172 7.793C18.5156 7.24612 19.0039 7.13675 19.5781 7.46878C19.7031 7.72268 19.7734 7.99221 19.7891 8.27737C19.7422 8.78128 19.6719 9.26565 19.5781 9.7305Z"
        fill="currentColor" />
    </g>
  </g>
  <mask
    id="mask2_16_98"
    style="mask-type: luminance"
    maskUnits="userSpaceOnUse"
    x="0"
    y="3"
    width="24"
    height="21">
    <path
      d="M23.5 3H0.5V24H23.5V3Z"
      fill="currentColor"
      fill-opacity="0.937255" />
  </mask>
  <g mask="url(#mask2_16_98)">
    <mask
      id="mask3_16_98"
      style="mask-type: luminance"
      maskUnits="userSpaceOnUse"
      x="0"
      y="3"
      width="24"
      height="21">
      <path
        d="M23.5 3H0.5V24H23.5V3Z"
        fill="white" />
    </mask>
    <g mask="url(#mask3_16_98)">
      <path
        fill-rule="evenodd"
        clip-rule="evenodd"
        d="M5.04664 9.51562C4.90992 9.51562 4.76929 9.51562 4.62867 9.51562C4.62086 9.28125 4.55054 9.06641 4.42164 8.87109C4.17164 8.63672 3.92945 8.40234 3.68726 8.16797C3.11695 7.89062 2.76929 8.07031 2.64429 8.70703C2.88258 8.96484 3.01929 9.26953 3.06226 9.625C2.48414 9.25781 2.29273 8.75391 2.48804 8.11719C2.65601 7.875 2.88258 7.73047 3.16383 7.68359C4.06617 8.00391 4.69508 8.61328 5.04664 9.51562Z"
        fill="currentColor" />
    </g>
  </g>
  <path
    fill-rule="evenodd"
    clip-rule="evenodd"
    d="M19.5785 9.73047C19.4301 9.94922 19.3598 10.1992 19.3715 10.4844C19.3871 10.5898 19.3559 10.6641 19.266 10.6992C18.7777 11.1484 18.3246 11.1133 17.9066 10.5938C17.8598 9.64453 17.9301 8.71094 18.1176 7.79297C18.4262 7.71484 18.723 7.60938 19.0043 7.46875C19.2934 7.51562 19.4652 7.69531 19.5277 8.00781C19.5785 8.58203 19.598 9.15625 19.5785 9.73047Z"
    fill="currentColor" />
  <mask
    id="mask4_16_98"
    style="mask-type: luminance"
    maskUnits="userSpaceOnUse"
    x="0"
    y="3"
    width="24"
    height="21">
    <path
      d="M23.5 3H0.5V24H23.5V3Z"
      fill="currentColor"
      fill-opacity="0.470588" />
  </mask>
  <g mask="url(#mask4_16_98)">
    <mask
      id="mask5_16_98"
      style="mask-type: luminance"
      maskUnits="userSpaceOnUse"
      x="0"
      y="3"
      width="24"
      height="21">
      <path
        d="M23.5 3H0.5V24H23.5V3Z"
        fill="white" />
    </mask>
    <g mask="url(#mask5_16_98)">
      <path
        fill-rule="evenodd"
        clip-rule="evenodd"
        d="M18.1175 7.79297C17.93 8.71094 17.8597 9.64453 17.9065 10.5937C17.6019 9.63281 17.6683 8.69922 18.1175 7.79297Z"
        fill="currentColor" />
    </g>
  </g>
  <mask
    id="mask6_16_98"
    style="mask-type: luminance"
    maskUnits="userSpaceOnUse"
    x="0"
    y="3"
    width="24"
    height="21">
    <path
      d="M23.5 3H0.5V24H23.5V3Z"
      fill="currentColor"
      fill-opacity="0.172549" />
  </mask>
  <g mask="url(#mask6_16_98)">
    <mask
      id="mask7_16_98"
      style="mask-type: luminance"
      maskUnits="userSpaceOnUse"
      x="0"
      y="3"
      width="24"
      height="21">
      <path
        d="M23.5 3H0.5V24H23.5V3Z"
        fill="white" />
    </mask>
    <g mask="url(#mask7_16_98)">
      <path
        fill-rule="evenodd"
        clip-rule="evenodd"
        d="M19.5784 9.73047C19.5901 10.0156 19.5198 10.2695 19.3714 10.4844C19.3597 10.1992 19.43 9.94922 19.5784 9.73047Z"
        fill="currentColor" />
    </g>
  </g>
  <mask
    id="mask8_16_98"
    style="mask-type: luminance"
    maskUnits="userSpaceOnUse"
    x="0"
    y="3"
    width="24"
    height="21">
    <path
      d="M23.5 3H0.5V24H23.5V3Z"
      fill="currentColor"
      fill-opacity="0.372549" />
  </mask>
  <g mask="url(#mask8_16_98)">
    <mask
      id="mask9_16_98"
      style="mask-type: luminance"
      maskUnits="userSpaceOnUse"
      x="0"
      y="3"
      width="24"
      height="21">
      <path
        d="M23.5 3H0.5V24H23.5V3Z"
        fill="white" />
    </mask>
    <g mask="url(#mask9_16_98)">
      <path
        fill-rule="evenodd"
        clip-rule="evenodd"
        d="M17.9062 10.5938C18.3242 11.1133 18.7773 11.1484 19.2656 10.6992C19.0547 11.2227 18.707 11.3477 18.2188 11.0781C18.0508 10.957 17.9453 10.793 17.9062 10.5938Z"
        fill="#331600" />
    </g>
  </g>
  <path
    fill-rule="evenodd"
    clip-rule="evenodd"
    d="M5.04688 9.51563C5.45703 9.77735 5.82422 10.0977 6.14453 10.4844C6.55469 11.1211 7.04297 11.6953 7.60938 12.207C8.03125 12.7383 7.94141 13.1328 7.34766 13.3906C6.96875 13.2695 6.62109 13.0898 6.30078 12.8555C5.21484 11.7695 4.13281 10.6914 3.0625 9.62501C3.01953 9.26954 2.88281 8.96485 2.64453 8.70704C2.76953 8.07032 3.11719 7.89063 3.6875 8.16798C3.92969 8.40235 4.17188 8.63673 4.42188 8.8711C4.55078 9.06641 4.62109 9.28126 4.62891 9.51563C4.76953 9.51563 4.91016 9.51563 5.04688 9.51563Z"
    fill="currentColor" />
  <path
    fill-rule="evenodd"
    clip-rule="evenodd"
    d="M12.5745 14.8984C12.1683 14.9219 11.8206 15.082 11.5316 15.3828C11.0589 15.4023 10.6058 15.457 10.1722 15.5469C10.1722 15.7109 10.2425 15.8359 10.3792 15.9219C10.598 15.9453 10.805 15.9961 11.0081 16.0859C11.0511 16.1719 11.0863 16.2617 11.1136 16.3554C10.9613 16.8281 10.7152 17.2422 10.3792 17.5937C10.6527 17.6797 10.93 17.7344 11.2152 17.7539C12.2894 18.2539 13.3323 18.7734 14.3519 19.3164C14.3675 19.1679 14.3519 19.0234 14.3011 18.8828C13.555 17.9336 13.3636 16.8906 13.7269 15.7617C13.7503 16.1054 13.7503 16.4258 13.7269 16.7304C13.7581 16.8164 13.8089 16.8906 13.8831 16.9453C14.0316 16.7461 14.1527 16.5312 14.2464 16.3008C14.3284 16.3945 14.3792 16.5039 14.4066 16.625C14.6136 16.0156 14.598 15.4023 14.3519 14.7929C14.4144 14.457 14.6058 14.2422 14.9261 14.1445C14.9105 14.4297 14.8597 14.7187 14.7698 15.0078C14.8363 15.2929 14.887 15.5781 14.9261 15.8711C15.2816 16.0469 15.3323 16.2617 15.0863 16.5156C15.0159 16.4062 14.9456 16.3008 14.8753 16.1914C14.7738 16.4336 14.7386 16.6836 14.7698 16.9453C14.5589 16.9844 14.3675 16.9844 14.1956 16.9453C14.18 17.1797 14.0902 17.3789 13.9339 17.539C14.0784 17.6054 14.2191 17.6797 14.3519 17.7539C14.2542 17.9804 14.2347 18.2148 14.3011 18.4531C14.6175 18.8281 14.9144 19.2226 15.1878 19.6367C14.9066 19.9375 14.6605 19.8984 14.4573 19.5312C14.2269 19.5976 14.0159 19.707 13.8284 19.8554C13.5511 19.7109 13.4808 19.7812 13.6214 20.0703C13.3284 20.1328 13.0823 20.2773 12.887 20.5C12.6175 20.4726 12.5316 20.3281 12.6292 20.0703C12.7972 20.0312 12.9886 20.0312 13.2034 20.0703C13.2152 19.8867 13.2855 19.7265 13.4105 19.5859C13.3128 19.3047 13.137 19.25 12.887 19.4219C12.8206 19.6015 12.7152 19.7461 12.5745 19.8554C12.4222 19.5195 12.4925 19.2539 12.7855 19.0469C12.7503 18.9375 12.7152 18.832 12.68 18.7226C12.1527 18.4648 11.6331 18.2148 11.1136 17.9687C10.8011 17.914 10.4847 17.8984 10.1722 17.914C10.1448 17.6211 10.2152 17.3515 10.3792 17.1094C10.3636 17.0234 10.3284 16.9531 10.2738 16.8906C11.0355 16.5273 11.0355 16.2773 10.2738 16.1367C9.90266 15.7304 9.8675 15.2812 10.1722 14.7929C10.0706 14.582 9.93 14.4023 9.75422 14.2539C9.87141 14.0351 9.81672 14 9.59406 14.1445C9.52766 14.0742 9.45734 14.0039 9.38703 13.9297C9.17609 14.1445 9.01984 14.3984 8.91437 14.6836C8.98469 14.8281 9.09016 14.9375 9.23078 15.0078C9.21125 14.8672 9.28156 14.7226 9.43781 14.5781C9.47297 14.7031 9.50813 14.8281 9.54328 14.9531C9.60969 15.6367 9.60969 16.3008 9.54328 16.9453C9.43781 16.9453 9.33625 16.9453 9.23078 16.9453C9.28156 16.5703 9.28156 16.2109 9.23078 15.8711C9.34016 15.8867 9.44563 15.8672 9.54328 15.8164C9.40266 15.707 9.40266 15.6015 9.54328 15.4922C9.26984 15.3984 9.04328 15.2344 8.86359 15.0078C8.78938 15.5469 8.69953 16.0859 8.60187 16.625C8.31672 16.9219 8.01984 17.2109 7.71516 17.4844C7.66438 17.5859 7.64484 17.6953 7.66047 17.8086C7.53938 17.5117 7.59406 17.2226 7.81672 16.9453C8.43781 16.5625 8.68 15.9883 8.55109 15.2226C8.60969 14.4922 8.92609 13.9179 9.4925 13.5C9.63703 13.1172 9.67219 12.7187 9.59406 12.3164C8.45734 10.832 7.27375 9.39451 6.03938 8.00779C5.60188 7.63669 5.18391 7.24216 4.78547 6.82419C4.00813 5.57029 4.34016 5.01169 5.78156 5.15232C6.3675 5.54294 6.80109 6.06248 7.08625 6.71482C7.84406 7.59373 8.57453 8.49216 9.28156 9.40623C9.68781 10.1211 10.055 10.8594 10.3792 11.6172C10.4847 11.6875 10.5902 11.6875 10.6917 11.6172C11.4925 10.9062 12.3948 10.7265 13.4105 11.0781C13.9613 11.6445 14.0823 12.3086 13.7777 13.0703C13.5902 13.6015 13.3441 14.1054 13.0472 14.5781C12.9261 14.7539 12.7698 14.8633 12.5745 14.8984Z"
    fill="currentColor" />
  <path
    fill-rule="evenodd"
    clip-rule="evenodd"
    d="M19.266 16.5156C19.3012 17.0898 19.3363 17.6641 19.3715 18.2383C19.3441 18.8047 19.2387 19.3437 19.059 19.8555C18.6762 19.8242 18.5355 19.9688 18.6371 20.2852C18.4652 20.4453 18.2543 20.5547 18.0121 20.6094C17.6879 20.4805 17.3949 20.4805 17.1215 20.6094C17.0941 20.8359 16.9926 21.0156 16.809 21.1445C16.8012 21.8438 16.5394 22.418 16.0238 22.8711C15.8246 22.9922 15.6137 23.0117 15.3988 22.9219C15.5316 22.6875 15.6683 22.457 15.8168 22.2227C15.5121 22.0703 15.3715 22.1758 15.3988 22.5469C15.1097 22.5117 14.8324 22.5469 14.5629 22.6523C14.8558 22.793 15.1371 22.9531 15.3988 23.1367C14.4262 23.125 13.5004 22.8906 12.6293 22.4375C12.1566 22.4727 11.7894 22.2578 11.5316 21.793C11.4691 21.8164 11.4144 21.8516 11.3715 21.8984C10.8871 21.4727 10.4691 20.9688 10.1176 20.3906C9.91443 20.1367 9.65271 19.9922 9.33631 19.9609C8.85193 19.4102 8.34803 18.875 7.81678 18.3477C7.71131 18.1836 7.66053 18.0039 7.66053 17.8086C7.6449 17.6953 7.66443 17.5859 7.71521 17.4844C8.0199 17.2109 8.31678 16.9219 8.60193 16.625C8.69959 16.0859 8.78943 15.5469 8.86365 15.0078C9.04334 15.2344 9.2699 15.3984 9.54334 15.4922C9.40271 15.6016 9.40271 15.707 9.54334 15.8164C9.44568 15.8672 9.34021 15.8867 9.23084 15.8711C9.28162 16.2109 9.28162 16.5703 9.23084 16.9453C9.33631 16.9453 9.43787 16.9453 9.54334 16.9453C9.60974 16.3008 9.60974 15.6367 9.54334 14.9531C9.50818 14.8281 9.47303 14.7031 9.43787 14.5781C9.28162 14.7227 9.21131 14.8672 9.23084 15.0078C9.09021 14.9375 8.98474 14.8281 8.91443 14.6836C9.0199 14.3984 9.17615 14.1445 9.38709 13.9297C9.4574 14.0039 9.52771 14.0742 9.59412 14.1445C9.81678 14 9.87146 14.0352 9.75428 14.2539C9.93006 14.4023 10.0707 14.582 10.1722 14.793C9.86756 15.2812 9.90271 15.7305 10.2738 16.1367C11.0355 16.2773 11.0355 16.5273 10.2738 16.8906C10.3285 16.9531 10.3637 17.0234 10.3793 17.1094C10.2152 17.3516 10.1449 17.6211 10.1722 17.9141C10.4847 17.8984 10.8012 17.9141 11.1137 17.9688C11.6332 18.2148 12.1527 18.4648 12.6801 18.7227C12.7152 18.832 12.7504 18.9375 12.7855 19.0469C12.4926 19.2539 12.4222 19.5195 12.5746 19.8555C12.7152 19.7461 12.8207 19.6016 12.8871 19.4219C13.1371 19.25 13.3129 19.3047 13.4105 19.5859C13.2855 19.7266 13.2152 19.8867 13.2035 20.0703C12.9887 20.0313 12.7972 20.0313 12.6293 20.0703C12.5316 20.3281 12.6176 20.4727 12.8871 20.5C13.0824 20.2773 13.3285 20.1328 13.6215 20.0703C13.4808 19.7813 13.5512 19.7109 13.8285 19.8555C14.016 19.707 14.2269 19.5977 14.4574 19.5312C14.6605 19.8984 14.9066 19.9375 15.1879 19.6367C14.9144 19.2227 14.6176 18.8281 14.3012 18.4531C14.2347 18.2148 14.2543 17.9805 14.3519 17.7539C14.2191 17.6797 14.0785 17.6055 13.934 17.5391C14.0902 17.3789 14.1801 17.1797 14.1957 16.9453C14.3676 16.9844 14.559 16.9844 14.7699 16.9453C14.7387 16.6836 14.7738 16.4336 14.8754 16.1914C14.9457 16.3008 15.016 16.4062 15.0863 16.5156C15.3324 16.2617 15.2816 16.0469 14.9262 15.8711C14.8871 15.5781 14.8363 15.293 14.7699 15.0078C14.8597 14.7187 14.9105 14.4297 14.9262 14.1445C14.6058 14.2422 14.4144 14.457 14.3519 14.793C14.598 15.4023 14.6137 16.0156 14.4066 16.625C14.3793 16.5039 14.3285 16.3945 14.2465 16.3008C14.1527 16.5313 14.0316 16.7461 13.8832 16.9453C13.809 16.8906 13.7582 16.8164 13.7269 16.7305C13.7504 16.4258 13.7504 16.1055 13.7269 15.7617C13.766 15.2148 13.8558 14.6758 13.9887 14.1445C14.1176 13.4727 14.5004 13.043 15.1371 12.8555C15.5902 13.168 16.0785 13.2734 16.6019 13.1758C17.1527 13.4297 17.7074 13.4297 18.2738 13.1758C18.5238 13.1992 18.7347 13.3047 18.8988 13.5C19.016 14.5078 19.1371 15.5117 19.266 16.5156Z"
    fill="currentColor" />
  <mask
    id="mask10_16_98"
    style="mask-type: luminance"
    maskUnits="userSpaceOnUse"
    x="0"
    y="3"
    width="24"
    height="21">
    <path
      d="M23.5 3H0.5V24H23.5V3Z"
      fill="currentColor"
      fill-opacity="0.72549" />
  </mask>
  <g mask="url(#mask10_16_98)">
    <mask
      id="mask11_16_98"
      style="mask-type: luminance"
      maskUnits="userSpaceOnUse"
      x="0"
      y="3"
      width="24"
      height="21">
      <path
        d="M23.5 3H0.5V24H23.5V3Z"
        fill="white" />
    </mask>
    <g mask="url(#mask11_16_98)">
      <path
        fill-rule="evenodd"
        clip-rule="evenodd"
        d="M12.5742 14.8984C12.1758 15.1602 11.7578 15.3945 11.3203 15.6016C10.9414 15.5898 10.5586 15.5703 10.1719 15.5469C10.6055 15.457 11.0586 15.4023 11.5312 15.3828C11.8203 15.082 12.168 14.9219 12.5742 14.8984Z"
        fill="currentColor" />
    </g>
  </g>
  <path
    fill-rule="evenodd"
    clip-rule="evenodd"
    d="M1.70267 13.6094C2.63236 13.586 3.36283 13.961 3.89799 14.7383C4.7222 15.0196 5.48783 15.4141 6.19877 15.9219C6.55033 16.1407 6.70658 16.4454 6.66752 16.8399C6.62455 16.8868 6.57377 16.9219 6.51127 16.9454C4.89408 16.5274 3.36283 15.8985 1.9097 15.0626C1.43314 14.7891 1.27689 14.3751 1.44095 13.8243C1.54252 13.7618 1.63236 13.6915 1.70267 13.6094Z"
    fill="currentColor" />
  <mask
    id="mask12_16_98"
    style="mask-type: luminance"
    maskUnits="userSpaceOnUse"
    x="0"
    y="3"
    width="24"
    height="21">
    <path
      d="M23.5 3H0.5V24H23.5V3Z"
      fill="currentColor"
      fill-opacity="0.470588" />
  </mask>
  <g mask="url(#mask12_16_98)">
    <mask
      id="mask13_16_98"
      style="mask-type: luminance"
      maskUnits="userSpaceOnUse"
      x="0"
      y="3"
      width="24"
      height="21">
      <path
        d="M23.5 3H0.5V24H23.5V3Z"
        fill="white" />
    </mask>
    <g mask="url(#mask13_16_98)">
      <path
        fill-rule="evenodd"
        clip-rule="evenodd"
        d="M19.2653 16.5156C19.6325 17.5391 19.6482 18.582 19.3161 19.6367C19.1677 19.9414 18.9411 20.1563 18.6364 20.2852C18.5349 19.9688 18.6755 19.8242 19.0583 19.8555C19.238 19.3437 19.3435 18.8047 19.3708 18.2383C19.3357 17.6641 19.3005 17.0898 19.2653 16.5156Z"
        fill="currentColor" />
    </g>
  </g>
  <path
    fill-rule="evenodd"
    clip-rule="evenodd"
    d="M9.33594 19.9609C9.65234 19.9922 9.91406 20.1367 10.1172 20.3906C10.4687 20.9688 10.8867 21.4727 11.3711 21.8984C11.4141 21.8516 11.4687 21.8164 11.5312 21.793C11.7891 22.2578 12.1562 22.4727 12.6289 22.4375C13.5 22.8906 14.4258 23.125 15.3984 23.1367C15.1367 22.9531 14.8555 22.793 14.5625 22.6523C14.832 22.5469 15.1094 22.5117 15.3984 22.5469C15.3711 22.1758 15.5117 22.0703 15.8164 22.2227C15.668 22.457 15.5312 22.6875 15.3984 22.9219C15.6133 23.0117 15.8242 22.9922 16.0234 22.8711C16.5391 22.418 16.8008 21.8438 16.8086 21.1445C16.9922 21.0156 17.0937 20.8359 17.1211 20.6094C17.3945 20.4805 17.6875 20.4805 18.0117 20.6094C17.7969 20.7617 17.5547 20.8711 17.2812 20.9297C17.125 21.3477 17.0039 21.7813 16.9141 22.2227C16.5234 23.043 15.8789 23.4375 14.9805 23.4062C14.1797 23.2227 13.3789 23.0273 12.5742 22.8164C11.8477 22.5352 11.2031 22.1211 10.6406 21.5781C10.1836 21.0508 9.74609 20.5156 9.33594 19.9609Z"
    fill="currentColor" />
</svg>
