<svg
  width="24"
  height="24"
  viewBox="0 0 24 24"
  fill="none"
  xmlns="http://www.w3.org/2000/svg">
  <path
    fill-rule="evenodd"
    clip-rule="evenodd"
    d="M1.13711 5.99462C1.11251 6.00029 1.08939 6.01099 1.06923 6.02607C1.04907 6.04114 1.03232 6.06023 1.02007 6.08212C1.00934 6.10281 1.00254 6.12527 1 6.1484C0.99994 6.17008 1.00423 6.19155 1.01261 6.21157C1.02099 6.2316 1.0333 6.24977 1.04882 6.26505C1.06889 6.28427 1.08828 6.29421 1.10768 6.31343C1.12707 6.33265 1.13711 6.33265 1.15651 6.3426L8.87133 10.7833C9.04563 10.8806 9.19691 11.0137 9.31492 11.1738C9.43297 11.3339 9.51499 11.5171 9.5555 11.7113C9.68327 12.1089 9.28197 12.8062 9.0666 13.174L7.58048 15.7709C7.50409 15.8944 7.45425 16.0322 7.43411 16.1757C7.41402 16.3192 7.42395 16.4652 7.46347 16.6047C7.54477 16.8661 7.72271 17.0875 7.9617 17.2244L9.44848 18.0966C9.68405 18.2341 9.96299 18.279 10.2303 18.2226C10.3698 18.1872 10.5002 18.1233 10.6131 18.0347C10.726 17.9463 10.8189 17.8353 10.8858 17.7089L10.9734 17.5638C11.0892 17.372 11.1638 17.1585 11.1925 16.9368C11.2211 16.715 11.2032 16.4898 11.1399 16.2753L8.80311 7.57408C8.64659 6.9928 8.33491 6.56662 7.84469 6.28559L6.11378 5.27814C5.91883 5.16656 5.70801 5.08478 5.48843 5.03555C5.1663 4.97559 4.83441 4.99217 4.51998 5.08394C2.99508 5.45974 1.13711 5.99462 1.13711 5.99462Z"
    fill="currentColor" />
  <path
    fill-rule="evenodd"
    clip-rule="evenodd"
    d="M22.8645 5.99443C22.8891 6.00017 22.9122 6.01091 22.9323 6.02597C22.9525 6.04103 22.9693 6.06009 22.9816 6.08192C22.9919 6.10269 22.9985 6.12514 23.0009 6.1482C23.0012 6.1699 22.997 6.19142 22.9886 6.21147C22.9802 6.23151 22.9678 6.24967 22.9521 6.26485C22.9327 6.28407 22.9133 6.29402 22.8939 6.31324C22.8745 6.33246 22.8645 6.33246 22.8445 6.3424L15.1303 10.7832C14.9561 10.8806 14.8048 11.0138 14.6867 11.1738C14.5686 11.3338 14.4863 11.517 14.4455 11.7111C14.3184 12.1088 14.7197 12.806 14.9344 13.1739L16.4204 15.7707C16.497 15.8941 16.5469 16.032 16.5671 16.1754C16.5875 16.3189 16.5776 16.465 16.5382 16.6045C16.4566 16.866 16.2784 17.0873 16.0392 17.2242L14.5532 18.0965C14.3176 18.2339 14.0386 18.2788 13.7713 18.2224C13.6318 18.1872 13.5013 18.1232 13.3884 18.0347C13.2755 17.9462 13.1826 17.8352 13.1158 17.7088L13.0276 17.5636C12.912 17.3716 12.8376 17.1582 12.8091 16.9365C12.7805 16.7148 12.7985 16.4896 12.8617 16.2751L15.1985 7.57388C15.3551 6.9926 15.6667 6.56643 16.157 6.2854L17.8872 5.27795C18.0823 5.16625 18.2934 5.08446 18.5132 5.03536C18.8351 4.97533 19.1668 4.99191 19.4809 5.08374C21.0065 5.45955 22.8645 5.99443 22.8645 5.99443Z"
    fill="currentColor" />
</svg>
