<svg width="24" height="24" viewBox="0 0 24 24" fill="none" xmlns="http://www.w3.org/2000/svg">
<g clip-path="url(#clip0_28_17)">
<path d="M12.7161 5.5276C13.027 5.18978 13.4493 5 13.889 5C15.8673 5 17.7316 5 19.5675 5C23.2601 5.00001 25.1092 9.85074 22.4981 12.6877L16.8106 18.8672C16.5495 19.1509 16.1031 18.95 16.1031 18.5487V13.106L16.7603 12.3919C17.2825 11.8245 16.9127 10.8544 16.1742 10.8544H7.81348L12.7161 5.5276Z" fill="currentColor"/>
<path d="M11.0043 18.4724C10.6934 18.8102 10.2712 19 9.83146 19C7.85319 19 5.98889 19 4.15295 19C0.460348 19 -1.38873 14.1493 1.22233 11.3123L6.90982 5.1328C7.17092 4.84911 7.61738 5.05003 7.61738 5.45124L7.61741 10.8939L6.96011 11.6081C6.43789 12.1755 6.80774 13.1456 7.54627 13.1456L15.907 13.1456L11.0043 18.4724Z" fill="currentColor"/>
</g>
<defs>
<clipPath id="clip0_28_17">
<rect width="24" height="14" fill="white" transform="translate(0 5)"/>
</clipPath>
</defs>
</svg>
